HIERARCHY
ROOT joint_Root
{
	OFFSET 0.0 0.0 0.0
	CHANNELS 6 Xposition Yposition Zposition Zrotation Xrotation Yrotation 
	JOINT Hips
	{
		OFFSET 4.5925 91.4895 -427.239
		CHANNELS 6 Xposition Yposition Zposition Zrotation Xrotation Yrotation 
		JOINT Spine
		{
			OFFSET 15.7357 0.0 0.0
			CHANNELS 6 Xposition Yposition Zposition Zrotation Xrotation Yrotation 
			JOINT Chest
			{
				OFFSET 8.98455 -0.406207 0.0
				CHANNELS 6 Xposition Yposition Zposition Zrotation Xrotation Yrotation 
				JOINT Neck
				{
					OFFSET 16.3773 0.0 0.0
					CHANNELS 6 Xposition Yposition Zposition Zrotation Xrotation Yrotation 
					JOINT Head
					{
						OFFSET 6.45672 0.0 0.0
						CHANNELS 6 Xposition Yposition Zposition Zrotation Xrotation Yrotation 
						End Site
						{
							OFFSET 0.0 0.0 0.0
						}
					}
				}
				JOINT Shoulder_L
				{
					OFFSET 12.9942 -0.242716 4.98039
					CHANNELS 6 Xposition Yposition Zposition Zrotation Xrotation Yrotation 
					JOINT UpperArm_L
					{
						OFFSET 5.34809 0.0 0.0
						CHANNELS 6 Xposition Yposition Zposition Zrotation Xrotation Yrotation 
						JOINT LowerArm_L
						{
							OFFSET 24.3286 1.87007e-05 0.0
							CHANNELS 6 Xposition Yposition Zposition Zrotation Xrotation Yrotation 
							JOINT Hand_L
							{
								OFFSET 22.2916 0.0 0.0
								CHANNELS 6 Xposition Yposition Zposition Zrotation Xrotation Yrotation 
								End Site
								{
									OFFSET 0.0 0.0 0.0
								}
							}
						}
					}
				}
				JOINT Shoulder_R
				{
					OFFSET 12.9945 -0.242716 -4.98039
					CHANNELS 6 Xposition Yposition Zposition Zrotation Xrotation Yrotation 
					JOINT UpperArm_R
					{
						OFFSET -5.34813 0.0 0.0
						CHANNELS 6 Xposition Yposition Zposition Zrotation Xrotation Yrotation 
						JOINT LowerArm_R
						{
							OFFSET -24.3289 0.000322201 0.0
							CHANNELS 6 Xposition Yposition Zposition Zrotation Xrotation Yrotation 
							JOINT Hand_R
							{
								OFFSET -22.2915 -0.000108084 0.0
								CHANNELS 6 Xposition Yposition Zposition Zrotation Xrotation Yrotation 
								End Site
								{
									OFFSET 0.0 0.0 0.0
								}
							}
						}
					}
				}
			}
		}
		JOINT UpperLeg_L
		{
			OFFSET -2.19248 -6.46944 0.0
			CHANNELS 6 Xposition Yposition Zposition Zrotation Xrotation Yrotation 
			JOINT LowerLeg_L
			{
				OFFSET 39.0811 0.0 -1.23785e-05
				CHANNELS 6 Xposition Yposition Zposition Zrotation Xrotation Yrotation 
				JOINT Foot_L
				{
					OFFSET 40.9854 0.0 -1.26872e-05
					CHANNELS 6 Xposition Yposition Zposition Zrotation Xrotation Yrotation 
					JOINT Toes_L
					{
						OFFSET 11.7543 0.0 0.0
						CHANNELS 6 Xposition Yposition Zposition Zrotation Xrotation Yrotation 
						End Site
						{
							OFFSET 0.0 0.0 0.0
						}
					}
				}
			}
		}
		JOINT UpperLeg_R
		{
			OFFSET -2.19251 6.46944 0.0
			CHANNELS 6 Xposition Yposition Zposition Zrotation Xrotation Yrotation 
			JOINT LowerLeg_R
			{
				OFFSET -39.0811 -0.00228153 -0.0401928
				CHANNELS 6 Xposition Yposition Zposition Zrotation Xrotation Yrotation 
				JOINT Foot_R
				{
					OFFSET -40.9854 0.0 0.0
					CHANNELS 6 Xposition Yposition Zposition Zrotation Xrotation Yrotation 
					JOINT Toes_R
					{
						OFFSET -11.7543 0.0 0.0
						CHANNELS 6 Xposition Yposition Zposition Zrotation Xrotation Yrotation 
						End Site
						{
							OFFSET 0.0 0.0 0.0
						}
					}
				}
			}
		}
	}
}
MOTION
Frames:	4
Frame Time:	0.0333333
0.000000 0.000000 0.000000 0.000000 0.000000 -0.000000 -3.978450 91.616500 3.581500 88.594400 4.085550 -1.200930 15.735700 0.000005 -0.000001 86.298200 87.181400 -88.784700 8.984550 -0.406207 -0.000000 -2.138940 -0.149081 -4.975190 16.377300 -0.000001 -0.000001 2.888140 -5.221750 5.079590 6.456720 -0.000001 -0.000000 -4.352930 -1.922860 -4.044870 12.994200 -0.242716 4.980390 -91.680000 4.295870 -68.617000 5.348090 -0.000007 -0.000001 -63.282900 19.287400 -7.771940 24.328600 0.000019 0.000005 8.096200 20.954000 -21.691500 22.291600 -0.000001 0.000005 14.430500 5.137110 4.249760 12.994500 -0.242716 -4.980390 95.066500 -12.051800 -66.993200 -5.348130 -0.000001 -0.000004 -41.007300 -74.868600 -80.359700 -24.328900 0.000322 -0.000009 -3.600580 -3.266040 -47.832900 -22.291500 -0.000108 -0.000004 22.403100 5.579780 -10.200400 -2.192480 -6.469440 -0.000000 -173.147000 -9.787080 -6.376640 39.081100 -0.000007 -0.000012 -0.156621 0.355506 23.776400 40.985400 -0.000006 -0.000013 -1.849310 9.329640 -68.506600 11.754300 -0.000000 0.000003 -0.000149 -0.001444 -16.632500 -2.192510 6.469440 -0.000001 -179.161000 27.423100 175.735000 -39.081100 -0.002282 -0.040193 0.011878 -0.020051 23.123900 -40.985400 0.000008 0.000006 8.753230 12.820400 -70.999400 -11.754300 -0.000006 -0.000006 -0.114472 -0.155303 -17.496900
0.000000 0.000000 0.000000 0.000000 0.000000 -0.000000 -3.893850 91.623500 3.568200 88.568600 3.886140 -1.218940 15.735700 0.000005 -0.000001 86.295300 87.176700 -88.689100 8.984550 -0.406207 -0.000000 -2.130110 -0.158151 -4.789770 16.377300 -0.000001 -0.000001 2.891570 -5.240150 5.130150 6.456720 -0.000001 -0.000000 -4.381230 -1.948990 -4.060380 12.994200 -0.242716 4.980390 -91.680800 4.297280 -68.614100 5.348090 -0.000007 -0.000001 -63.196800 19.367900 -8.010990 24.328600 0.000019 0.000005 8.137990 20.755400 -21.974700 22.291600 -0.000001 0.000005 14.552500 5.141620 4.142920 12.994500 -0.242716 -4.980390 95.032700 -11.975900 -67.003300 -5.348130 -0.000001 -0.000004 -40.028400 -74.642000 -79.467400 -24.328900 0.000322 -0.000009 -3.603730 -3.262100 -47.892300 -22.291500 -0.000108 -0.000004 22.330300 5.579420 -10.181000 -2.192480 -6.469440 -0.000000 -173.192000 -9.904710 -6.365060 39.081100 -0.000007 -0.000012 -0.157866 0.358271 23.780000 40.985400 -0.000006 -0.000013 -1.802840 9.239790 -68.533200 11.754300 -0.000000 0.000003 -0.000136 -0.001337 -16.628500 -2.192510 6.469440 -0.000001 -179.194000 27.325400 175.683000 -39.081100 -0.002282 -0.040193 0.012469 -0.021414 23.144800 -40.985400 0.000008 0.000006 8.797940 12.923100 -70.979500 -11.754300 -0.000006 -0.000006 -0.084094 -0.120273 -17.534800
0.000000 0.000000 0.000000 0.000000 0.000000 -0.000000 -3.778990 91.624700 3.570730 88.559800 3.595230 -1.198060 15.735700 0.000005 -0.000001 86.791000 87.151900 -89.080100 8.984550 -0.406207 -0.000000 -2.077060 -0.122261 -4.579900 16.377300 -0.000001 -0.000001 2.861070 -5.222850 5.238200 6.456720 -0.000001 -0.000000 -4.406170 -1.939030 -4.141350 12.994200 -0.242716 4.980390 -91.696200 4.325980 -68.566000 5.348090 -0.000007 -0.000001 -63.179300 19.459500 -8.253100 24.328600 0.000019 0.000005 8.198130 20.598100 -22.269400 22.291600 -0.000001 0.000005 14.462500 5.142160 4.130120 12.994500 -0.242716 -4.980390 94.992700 -11.860100 -66.971500 -5.348130 -0.000001 -0.000004 -39.177100 -74.301400 -78.643500 -24.328900 0.000322 -0.000009 -3.534330 -3.164960 -48.197100 -22.291500 -0.000108 -0.000004 22.408500 5.577110 -10.058000 -2.192480 -6.469440 -0.000000 -173.266000 -10.109700 -6.288110 39.081100 -0.000007 -0.000012 -0.157049 0.356077 23.800300 40.985400 -0.000006 -0.000013 -1.737080 9.140000 -68.593500 11.754300 -0.000000 0.000003 -0.000141 -0.001382 -16.630200 -2.192510 6.469440 -0.000001 -179.307000 27.223400 175.690000 -39.081100 -0.002282 -0.040193 0.011513 -0.019159 23.165800 -40.985400 0.000008 0.000006 8.680300 13.171100 -70.957200 -11.754300 -0.000006 -0.000006 -0.111763 -0.152143 -17.498700
0.000000 0.000000 0.000000 0.000000 0.000000 -0.000000 -3.660700 91.641800 3.547860 88.508100 3.246090 -1.229540 15.735700 0.000005 -0.000001 86.988300 87.139200 -89.142100 8.984550 -0.406207 -0.000000 -2.050930 -0.116120 -4.308890 16.377300 -0.000001 -0.000001 2.828670 -5.200950 5.369160 6.456720 -0.000001 -0.000000 -4.386120 -1.885900 -4.136680 12.994200 -0.242716 4.980390 -91.721600 4.398050 -68.597900 5.348090 -0.000007 -0.000001 -63.219900 19.666500 -8.340050 24.328600 0.000019 0.000005 8.217600 20.338100 -22.563500 22.291600 -0.000001 0.000005 14.368300 5.140460 4.170390 12.994500 -0.242716 -4.980390 94.929500 -11.727000 -67.006000 -5.348130 -0.000001 -0.000004 -38.166400 -73.740800 -77.290100 -24.328900 0.000322 -0.000009 -3.589140 -3.105240 -49.176200 -22.291500 -0.000108 -0.000004 22.584900 5.573390 -9.863360 -2.192480 -6.469440 -0.000000 -173.323000 -10.272300 -6.247250 39.081100 -0.000007 -0.000012 -0.155867 0.354059 23.760700 40.985400 -0.000006 -0.000013 -1.690920 8.942040 -68.613200 11.754300 -0.000000 0.000003 -0.000141 -0.001378 -16.630000 -2.192510 6.469440 -0.000001 -179.349000 27.116000 175.636000 -39.081100 -0.002282 -0.040193 0.011522 -0.019204 23.137400 -40.985400 0.000008 0.000006 8.688530 13.424500 -70.879800 -11.754300 -0.000006 -0.000006 -0.190310 -0.244409 -17.468100
